<svg fill="#9e9e9e" height="256px" width="256px" version="1.1" id="Layer_1" xmlns="http://www.w3.org/2000/svg" xmlns:xlink="http://www.w3.org/1999/xlink" viewBox="0 0 512 512" xml:space="preserve" stroke="#ffffff"><g id="SVGRepo_bgCarrier" stroke-width="0"></g><g id="SVGRepo_tracerCarrier" stroke-linecap="round" stroke-linejoin="round"></g><g id="SVGRepo_iconCarrier"> <g> <g> <path d="M247.876,153.375c-0.659-2.34-2.256-4.305-4.411-5.428c-15.674-8.166-33.086-10.19-49.026-5.701 c-15.943,4.491-29.737,15.306-38.843,30.451c-1.252,2.084-1.59,4.592-0.93,6.933c0.659,2.34,2.256,4.305,4.413,5.428 c10.217,5.324,21.175,8.037,31.979,8.037c5.77,0,11.497-0.773,17.045-2.336c15.943-4.491,29.737-15.306,38.843-30.451 C248.198,158.224,248.537,155.716,247.876,153.375z M203.324,173.788c-8.615,2.425-17.609,2.267-26.459-0.41 c6.149-6.903,13.74-11.732,22.355-14.16s17.608-2.269,26.459,0.41C219.529,166.532,211.938,171.361,203.324,173.788z"></path> </g> </g> <g> <g> <path d="M130.514,172.699c-9.106-15.146-22.9-25.96-38.843-30.451c-15.939-4.489-33.351-2.465-49.026,5.701 c-2.156,1.124-3.752,3.088-4.411,5.428c-0.661,2.34-0.322,4.849,0.93,6.933c9.106,15.147,22.901,25.961,38.843,30.451 c5.549,1.563,11.275,2.336,17.045,2.336c10.806,0,21.762-2.713,31.979-8.037c2.157-1.124,3.753-3.087,4.413-5.428 C132.105,177.291,131.766,174.783,130.514,172.699z M82.787,173.787c-8.614-2.425-16.205-7.255-22.355-14.16 c8.85-2.679,17.845-2.838,26.459-0.41c8.614,2.426,16.205,7.256,22.355,14.16C100.397,176.056,91.402,176.214,82.787,173.787z"></path> </g> </g> <g> <g> <path d="M337.409,229.533c-4.31-17.141-14.365-31.497-28.312-40.429c-7.044-4.51-14.748-7.524-22.986-9.005V88.871 c0-9.67-4.417-18.566-12.12-24.407c-7.726-5.857-17.518-7.718-26.871-5.094c-33.748,9.458-68.604,14.276-103.601,14.318 c-0.155,0-0.307,0-0.463,0c-35.152,0-70.168-4.818-104.075-14.321c-9.345-2.619-19.136-0.763-26.86,5.093 C4.419,70.301,0,79.198,0,88.87v142.574c0,89.713,60.673,162.699,135.251,162.699h15.607 c73.873,0.001,134.091-71.612,135.226-160.156c9.384,5.024,20.007,7.616,31.026,7.616c4.413,0,8.89-0.416,13.373-1.255 c2.39-0.448,4.488-1.863,5.801-3.911C337.594,234.39,338.002,231.891,337.409,229.533z M268.479,216.397c0,0.052,0,0.102,0,0.154 v14.894c0,79.99-52.764,145.068-117.62,145.068h-15.607c-64.856,0-117.621-65.078-117.621-145.068V88.87 c0-4.106,1.875-7.883,5.143-10.36c2.31-1.751,5.056-2.662,7.866-2.662c1.192,0,2.396,0.165,3.582,0.496 c35.613,9.981,72.368,14.973,109.317,14.974c36.598-0.045,73.049-5.081,108.338-14.972c3.992-1.117,8.168-0.329,11.46,2.168 c3.268,2.477,5.141,6.252,5.141,10.358V216.397z M291.425,216.701c-1.869-1.197-3.64-2.545-5.314-4v-14.566 c4.795,1.206,9.306,3.147,13.478,5.818c7.537,4.825,13.395,11.655,17.272,20.047C307.615,223.99,298.961,221.526,291.425,216.701z "></path> </g> </g> <g> <g> <path d="M189.192,283.652H96.919c-4.87,0-8.816,3.947-8.816,8.816c0,28.666,23.321,51.987,51.987,51.987h5.933 c28.666,0,51.987-23.321,51.987-51.987C198.008,287.599,194.062,283.652,189.192,283.652z M146.022,326.822h-5.933 c-15.896,0-29.306-10.853-33.208-25.539h72.348C175.327,315.969,161.918,326.822,146.022,326.822z"></path> </g> </g> <g> <g> <path d="M153.634,240.748h-21.158c-4.869,0-8.816,3.947-8.816,8.816s3.946,8.816,8.816,8.816h21.158 c4.87,0,8.816-3.947,8.816-8.816S158.504,240.748,153.634,240.748z"></path> </g> </g> <g> <g> <path d="M452.676,238.688c-12.622-12.37-28.693-19.369-45.25-19.708c-16.586-0.334-32.9,6-46.017,17.845 c-1.804,1.629-2.856,3.932-2.906,6.364c-0.051,2.431,0.906,4.775,2.644,6.477c12.622,12.369,28.693,19.368,45.25,19.707 c0.421,0.007,0.838,0.012,1.259,0.012c16.125,0,31.975-6.313,44.758-17.856c1.804-1.629,2.856-3.932,2.906-6.363 C455.37,242.733,454.413,240.39,452.676,238.688z M406.758,251.741c-8.948-0.182-17.51-2.949-25.197-8.084 c7.888-4.817,16.589-7.227,25.504-7.049c8.948,0.182,17.51,2.949,25.198,8.084C424.37,249.51,415.651,251.918,406.758,251.741z"></path> </g> </g> <g> <g> <path d="M506.154,169.242c-5.689-7.852-14.52-12.476-24.228-12.687c-35.042-0.762-69.793-6.286-103.288-16.42 c-21.309-6.446-42.196-14.807-62.083-24.848c-4.35-2.193-9.648-0.45-11.844,3.895c-2.193,4.346-0.45,9.648,3.895,11.843 c20.797,10.502,42.641,19.245,64.925,25.986c35.03,10.597,71.369,16.374,108.011,17.17c4.143,0.091,7.911,2.061,10.335,5.405 c2.406,3.321,3.102,7.477,1.908,11.405l-41.449,136.416c-23.255,76.536-92.663,123.462-154.713,104.608l-14.932-4.537 c-20.07-6.098-37.767-18.701-51.179-36.45c-2.934-3.883-8.464-4.654-12.348-1.719c-3.885,2.936-4.654,8.464-1.719,12.349 c15.672,20.74,36.463,35.502,60.12,42.69l14.932,4.537c10.928,3.319,22.037,4.907,33.117,4.907 c61.268,0,121.506-48.567,143.592-121.261l41.449-136.416C513.466,186.865,511.826,177.069,506.154,169.242z"></path> </g> </g> <g> <g> <path d="M350.735,365.458c-6.539-12.249-17.459-21.219-30.744-25.256l-5.676-1.724c-13.29-4.038-27.351-2.657-39.599,3.883 c-12.249,6.54-21.219,17.46-25.255,30.746c-1.415,4.658,1.213,9.582,5.871,10.997l88.287,26.825 c4.596,1.393,9.602-1.279,10.998-5.873C358.655,391.771,357.276,377.707,350.735,365.458z M339.225,391.166l-69.245-21.039 c3.15-5.107,7.608-9.312,13.041-12.213c8.096-4.322,17.386-5.234,26.168-2.565l5.676,1.724 c8.781,2.667,15.997,8.595,20.319,16.689C338.083,379.195,339.448,385.169,339.225,391.166z"></path> </g> </g> <g> <g> <path d="M339.748,301.364l-20.245-6.151c-4.663-1.415-9.582,1.213-10.998,5.873c-1.415,4.658,1.213,9.582,5.871,10.998 l20.245,6.151c0.856,0.26,1.717,0.383,2.567,0.383c3.78,0,7.275-2.451,8.432-6.256 C347.034,307.704,344.406,302.78,339.748,301.364z"></path> </g> </g> </g></svg>